<?xml version="1.0" encoding="utf-8"?>
<!-- Generator: Adobe Illustrator 19.1.1, SVG Export Plug-In . SVG Version: 6.00 Build 0)  -->
<!DOCTYPE svg PUBLIC "-//W3C//DTD SVG 1.1//EN" "http://www.w3.org/Graphics/SVG/1.1/DTD/svg11.dtd">
<svg version="1.1" id="レイヤー_1" xmlns="http://www.w3.org/2000/svg" xmlns:xlink="http://www.w3.org/1999/xlink" x="0px"
	 y="0px" viewBox="-191 113 256 256" style="enable-background:new -191 113 256 256;" xml:space="preserve">
<style type="text/css">
	.st0{fill:#6C6C6C;}
	.st1{opacity:0.5;fill:#FFFFFF;}
	.st2{opacity:0.2;enable-background:new    ;}
	.st3{opacity:0.3;enable-background:new    ;}
	.st4{fill:#BABABA;}
	.st5{fill:#313131;}
	.st6{fill:#212121;}
	.st7{fill:#333333;}
	.st8{font-family:'KozGoPr6N-Regular-90ms-RKSJ-H';}
	.st9{font-size:43.2819px;}
	.st10{fill:#8A8A8A;}
	.st11{opacity:0.5;fill:none;stroke:#FFFFFF;stroke-width:60;stroke-miterlimit:10;}
</style>
<rect x="-141" y="162" class="st0" width="206" height="207"/>
<rect x="14" y="213" class="st1" width="51" height="100"/>
<rect x="-91" y="213" class="st1" width="100" height="100"/>
<rect x="-91" y="318" class="st1" width="100" height="51"/>
<rect x="14" y="318" class="st1" width="51" height="51"/>
<rect x="-141" y="147.2" class="st2" width="4.9" height="221.8"/>
<g>
	
		<rect x="-205.1" y="195.1" transform="matrix(0.7071 -0.7071 0.7071 0.7071 -179.6894 4.1191)" class="st3" width="240.5" height="47.6"/>
	
		<rect x="-209.4" y="191.1" transform="matrix(0.7071 -0.7071 0.7071 0.7071 -178.0427 -8.788969e-002)" class="st4" width="240.5" height="47.6"/>
</g>
<rect x="-191" y="113" class="st5" width="50" height="256"/>
<rect x="-191" y="112" class="st6" width="256" height="50"/>
<text transform="matrix(0.7071 -0.7071 0.7071 0.7071 -99.4267 250.4125)" class="st7 st8 st9">Uni</text>
<rect x="-173.4" y="129.5" class="st10" width="100" height="15"/>
<line class="st11" x1="-191" y1="113" x2="65" y2="369"/>
</svg>
